<?xml version="1.0" encoding="utf-8"?>
<?xml-stylesheet type="text/xsl" href="rss1.xsl"?>
<rss version="2.0" xmlns:atom="http://www.w3.org/2005/Atom" xmlns:content="http://purl.org/rss/1.0/modules/content/" xmlns:dc="http://purl.org/dc/elements/1.1/" xmlns:media="http://search.yahoo.com/mrss/">
<channel>
 <title>Getty</title>
 <link>http://www.gettyimg.com/</link>
 <atom:link href="http://www.gettyimg.com/" rel="self" type="application/rss+xml" />

 
                <item>
                <title><![CDATA[【Cinema Center】SERIES - Kamp Koral: SpongeBob's Under Years - Season 1 - 1080p Amazon WEB-DL DDP5.1 H.264-LAZY]]></title>
                <link><![CDATA[https://sharemania.us/threads/kamp-koral-spongebobs-under-years-season-1-1080p-amazon-web-dl-ddp5-1-h-264-lazy.232469/]]></link>
                <description><![CDATA[<article>
<blockquote class="messageText SelectQuoteContainer ugc baseHtml">
Kamp Koral: SpongeBob's Under Years:<img src="https://i.imgur.com/ZQ2dKL8.jpg" class="bbCodeImage LbImage" alt="[​IMG]" data-url="https://i.imgur.com/ZQ2dKL8.jpg" style=""> <br>
<br>
<div class="bbCodeBlock bbCodeQuote">
<aside>
<blockquote class="quoteContainer"><div class="quote"><i><b>Synopsis:</b></i><br>
A 10-year-old SpongeBob goes to a summer sleepaway camp called Kamp Koral.</div><div class="quoteExpand">Click to expand...</div></blockquote>
</aside>
</div>
<div class="ToggleTriggerAnchor bbCodeSpoilerContainer">
<button type="button" class="button bbCodeSpoilerButton ToggleTrigger Tooltip JsOnly" data-target="> .SpoilerTarget"><span>Spoiler: <span class="SpoilerTitle">MediaInfo</span></span></button>
<div class="SpoilerTarget bbCodeSpoilerText">General<br>
Unique ID : 188288305050877964538916740012935770063 (0x8DA7022C3D4C91C3B2F701E37E146FCF)<br>
Complete name : Kamp.Koral.SpongeBobs.Under.Years.S01E01.The.Jellyfish.Kid.1080p.AMZN.WEB-DL.DDP5.1.H.264-LAZY.mkv<br>
Format : Matroska<br>
Format version : Version 4<br>
File size : 1.26 GiB<br>
Duration : 22 min 41 s<br>
Overall bit rate : 7 924 kb/s<br>
Frame rate : 23.976 FPS<br>
Encoded date : 2023-11-16 21:29:39 UTC<br>
Writing application : mkvmerge v80.0 ('Roundabout') 64-bit<br>
Writing library : libebml v1.4.4 + libmatroska v1.7.1<br>
<br>
Video<br>
ID : 1<br>
Format : AVC<br>
Format/Info : Advanced Video Codec<br>
Format profile : High@L4<br>
Format settings : CABAC / 4 Ref Frames<br>
Format settings, CABAC : Yes<br>
Format settings, Reference frames : 4 frames<br>
Codec ID : V_MPEG4/ISO/AVC<br>
Duration : 22 min 41 s<br>
Bit rate mode : Constant<br>
Bit rate : 7 282 kb/s<br>
Nominal bit rate : 10 000 kb/s<br>
Width : 1 920 pixels<br>
Height : 1 080 pixels<br>
Display aspect ratio : 16:9<br>
Frame rate mode : Constant<br>
Frame rate : 23.976 (24000/1001) FPS<br>
Color space : YUV<br>
Chroma subsampling : 4:2:0<br>
Bit depth : 8 bits<br>
Scan type : Progressive<br>
Bits/(Pixel*Frame) : 0.146<br>
Stream size : 1.15 GiB (92%)<br>
Default : Yes<br>
Forced : No<br>
Color range : Limited<br>
Color primaries : BT.709<br>
Transfer characteristics : BT.709<br>
Matrix coefficients : BT.709<br>
<br>
Audio<br>
ID : 2<br>
Format : E-AC-3<br>
Format/Info : Enhanced AC-3<br>
Commercial name : Dolby Digital Plus<br>
Codec ID : A_EAC3<br>
Duration : 22 min 41 s<br>
Bit rate mode : Constant<br>
Bit rate : 640 kb/s<br>
Channel(s) : 6 channels<br>
Channel layout : L R C LFE Ls Rs<br>
Sampling rate : 48.0 kHz<br>
Frame rate : 31.250 FPS (1536 SPF)<br>
Compression mode : Lossy<br>
Stream size : 104 MiB (8%)<br>
Language : English<br>
Service kind : Complete Main<br>
Default : Yes<br>
Forced : No<br>
<br>
Text<br>
ID : 3<br>
Format : UTF-8<br>
Codec ID : S_TEXT/UTF8<br>
Codec ID/Info : UTF-8 Plain Text<br>
Duration : 22 min 29 s<br>
Bit rate : 72 b/s<br>
Frame rate : 0.447 FPS<br>
Count of elements : 604<br>
Stream size : 11.9 KiB (0%)<br>
Title : SDH<br>
Language : English<br>
Default : No<br>
Forced : No</div>
</div><br>
Screenshots:<br>
<img src="https://i.imgur.com/PzT7a1d.jpg" class="bbCodeImage LbImage" alt="[​IMG]" data-url="https://i.imgur.com/PzT7a1d.jpg" style=""> <br>
<br>
<div class="bbCodeBlock bbCodeVfcHH HiddenContent">
<div class="attribution type">Hidden Content:</div>
<blockquote>You must either reply or click 'Like' to see the hidden information contained here.</blockquote>
</div>
<div class="messageTextEndMarker">&nbsp;</div>
</blockquote>
</article>]]></description>
                <author><![CDATA[LazyRips]]></author>
                </item>

                
                <item>
                <title><![CDATA[【Requests】[REQ AUD] - Need two EPs/Albums from the artist Katherine Li]]></title>
                <link><![CDATA[https://sharemania.us/threads/need-two-eps-albums-from-the-artist-katherine-li.232468/]]></link>
                <description><![CDATA[<article>
<blockquote class="messageText SelectQuoteContainer ugc baseHtml">
I need two EPs from the artis Katherine Li in lossless.<br>
EP are<br>
1. Isn't It Obvious - <a href="https://www.qobuz.com/album/isnt-it-obvious-katherine-li/zqhnd0s6c4yqb" target="_blank" class="externalLink" rel="nofollow">https://www.qobuz.com/album/isnt-it-obvious-katherine-li/zqhnd0s6c4yqb</a><br>
2. Crush(ed) - <a href="https://www.qobuz.com/album/crushed-katherine-li/jwxqq7qiw7lbb" target="_blank" class="externalLink" rel="nofollow">https://www.qobuz.com/album/crushed-katherine-li/jwxqq7qiw7lbb</a><br>
<br>
Please, fill this request.
<div class="messageTextEndMarker">&nbsp;</div>
</blockquote>
</article>]]></description>
                <author><![CDATA[anymouse939310]]></author>
                </item>

                </channel></rss>